<?xml version="1.0" encoding="utf-8"?>
<!-- Generator: Adobe Illustrator 25.4.1, SVG Export Plug-In . SVG Version: 6.00 Build 0)  -->
<svg version="1.1" id="Layer_1" xmlns="http://www.w3.org/2000/svg" xmlns:xlink="http://www.w3.org/1999/xlink" x="0px" y="0px"
	 viewBox="0 0 1280 600.02" style="enable-background:new 0 0 1280 600.02;" xml:space="preserve">
<style type="text/css">
	.st0{fill:#FCFCFC;}
	.st1{fill:#D70B4E;}
	.st2{clip-path:url(#SVGID_00000033343903348681432300000014530291673552306612_);}
	.st3{fill-rule:evenodd;clip-rule:evenodd;fill:#1B1B1C;}
	.st4{fill-rule:evenodd;clip-rule:evenodd;fill:#CB2125;}
	.st5{clip-path:url(#SVGID_00000044879550787024314260000016141133328301696958_);}
	.st6{clip-path:url(#SVGID_00000096031058932018710550000013276675520311924111_);}
	.st7{fill:none;}
	.st8{clip-path:url(#SVGID_00000070829680756443756750000018356938330824669341_);}
	.st9{clip-path:url(#SVGID_00000026151212309872575870000011599953021396366479_);}
	.st10{fill:#FFFFFF;}
	.st11{fill:#F6F5F7;}
	.st12{fill:#F7F7F7;}
	.st13{fill:#EFF1F4;}
</style>
<g>
	<path class="st12" d="M632.31,536.94c-5.04-3.03-10.77-3.71-17.16-2.02c-14.13,4.37-27.93,7.74-41.38,10.1
		c-13.46,2.35-26.24,3.53-38.35,3.53c-17.49,0-34.24-2.02-50.21-6.05c-15.99-4.04-31.63-9.43-46.94-16.15
		c-15.31-6.74-30.53-14.72-45.67-23.97c-15.14-9.26-30.61-18.92-46.42-29.01c-9.76-6.06-19.94-12.36-30.53-18.92
		c-10.6-6.56-21.45-13.04-32.55-19.43c-10.43-6.39-21.45-12.87-33.05-19.43c-11.61-6.56-22.3-12.36-32.05-17.41
		c14.13-14.81,26.82-30.53,38.1-47.18c11.27-16.65,21.61-34.57,31.03-53.75c6.06-12.44,12.11-25.48,18.17-39.11
		c6.06-13.62,11.77-26.82,17.16-39.61c17.16-2.02,34.73-5.55,52.74-10.6c17.99-5.04,34.99-12.61,50.97-22.71
		c15.97-10.09,29.93-23.13,41.89-39.11c11.94-15.98,20.26-35.58,24.98-58.79c0.67-4.04,1.17-7.82,1.51-11.35
		c0.33-3.53,0.51-6.81,0.51-9.84c0-11.1-1.86-20.86-5.55-29.27c-3.71-8.41-8.83-15.31-15.39-20.69
		c-6.56-5.37-14.13-9.41-22.71-12.11C442.82,1.35,433.81,0,424.4,0c-16.15,0-32.3,3.62-48.45,10.85
		c-16.15,7.24-30.12,18.09-41.89,32.55c-15.81,19.52-29.77,42.06-41.89,67.62c-12.11,25.57-23.55,51.98-34.32,79.23
		c-10.77-2.02-21.45-5.05-32.04-9.08c-10.6-4.04-20.11-9.25-28.51-15.65c-8.41-6.38-15.06-13.87-19.94-22.45
		c-4.88-8.58-6.99-18.42-6.31-29.52c1.01-10.42,4.29-20.85,9.84-31.28c5.55-10.42,13.12-19.85,22.71-28.26
		c9.59-8.4,21.2-15.22,34.82-20.44c13.62-5.22,29.18-7.99,46.68-8.33c5.04-2.35,7.57-6.22,7.57-11.61c0-2.69-1.1-5.04-3.28-7.06
		c-2.2-2.02-5.48-3.19-9.84-3.53c-2.7-0.33-5.13-0.5-7.32-0.5h-6.82c-18.84,0-37.43,2.77-55.76,8.32
		c-18.35,5.55-34.74,13.38-49.2,23.47c-14.46,10.1-26.16,22.29-35.07,36.59c-8.92,14.3-13.21,30.2-12.87,47.69
		c0.33,14.47,4.79,27.17,13.37,38.1c8.58,10.94,19.43,20.36,32.55,28.26c13.12,7.9,27.58,14.46,43.4,19.68
		c15.81,5.22,31.29,9.17,46.43,11.86c-11.78,29.95-24.05,58.71-36.84,86.29c-12.79,27.6-27.76,51.31-44.91,71.16
		c-15.48-6.06-31.04-10.67-46.68-13.88c-15.64-3.19-31.54-4.45-47.68-3.78c-12.45,0.68-23.21,2.45-32.3,5.3
		c-9.08,2.86-16.57,6.56-22.46,11.1c-5.89,4.54-10.27,9.66-13.12,15.39C1.42,393.78,0,399.5,0,405.23
		c0,10.09,4.29,19.42,12.87,28.01c8.58,8.58,21.11,13.88,37.6,15.9c6.38,0.67,12.53,1.26,18.42,1.76c5.88,0.5,11.68,0.76,17.41,0.76
		c20.19,0,38.77-2.52,55.76-7.57c16.99-5.04,32.88-12.45,47.69-22.21c9.42,5.39,19.76,11.61,31.04,18.67
		c11.27,7.06,23.12,14.8,35.57,23.21c9.41,6.06,19.43,12.88,30.03,20.44c10.6,7.57,20.27,14.55,29.02,20.94
		c16.15,11.77,32.12,23.04,47.94,33.81c15.81,10.76,31.62,20.44,47.44,29.02c15.81,8.58,31.87,15.65,48.19,21.19
		c16.31,5.55,33.05,9,50.21,10.34c2.68,0.33,5.37,0.51,8.07,0.51h8.08c17.16,0,34.99-2.95,53.49-8.84
		c18.5-5.89,36.34-15.39,53.49-28.51c1.68-1.69,3.36-3.87,5.04-6.56c1.68-2.7,2.53-4.88,2.53-6.56
		C639.88,544.17,637.35,539.97,632.31,536.94 M340.63,171.08c2.69-7.73,4.87-13.96,6.56-18.67c4.71-11.77,9.25-23.12,13.63-34.06
		c4.37-10.93,8.91-21.45,13.62-31.54c7.06-16.82,16.16-30.03,27.25-39.61c11.1-9.59,21.02-14.38,29.77-14.38
		c6.06,0,10.85,1.94,14.38,5.81c3.53,3.87,5.3,10.01,5.3,18.42c0,9.08-2.2,20.02-6.56,32.8c-9.76,26.24-23.72,47.78-41.88,64.59
		c-18.17,16.83-41.22,28.77-69.14,35.83C335.58,185.2,337.94,178.82,340.63,171.08 M111.28,413.05
		c-10.27,4.21-20.44,6.64-30.54,7.32c-15.13,1.34-26.66,0.08-34.57-3.79c-7.9-3.87-11.86-8.33-11.86-13.37
		c0-4.72,4.03-9.34,12.11-13.88c8.08-4.54,20.35-6.81,36.84-6.81c7.07,0,15.39,1.08,24.98,3.28c9.59,2.18,20.77,6.13,33.56,11.86
		C131.71,403.71,121.53,408.83,111.28,413.05 M1279.75,283.1c-0.68-2.68-2.1-4.7-4.29-6.06c-2.19-1.33-4.71-1.84-7.57-1.51
		c-2.86,0.33-5.47,1.85-7.82,4.54c-6.39,7.74-13.71,15.06-21.95,21.95c-8.25,6.9-19.27,11.36-33.05,13.37
		c8.74-14.13,15.39-28.33,19.93-42.64c4.54-14.29,5.81-27.33,3.79-39.11c-1.36-8.41-3.79-15.47-7.32-21.2
		c-3.53-5.71-7.82-10.34-12.86-13.87c-5.04-3.53-10.77-6.06-17.16-7.57c-6.4-1.51-12.95-2.27-19.68-2.27h-7.82
		c-2.52,0-5.3,0.34-8.32,1.01c-11.1,1.69-22.13,6.06-33.05,13.12c-10.93,7.06-21.2,15.82-30.78,26.24
		c-9.59,10.43-18.26,22.04-25.99,34.82c-6.85,11.31-12.29,22.47-16.5,33.5c-5.07,6.51-10.09,13.09-15.28,19.48
		c-8.76,10.77-18.34,20.02-28.76,27.76l-4.54,3.53l0.5-0.5c-3.03,2.35-5.89,4.54-8.58,6.56c-2.69,2.02-4.97,3.28-6.81,3.79
		c-1.85,0.51-3.28,0.25-4.29-0.76c-1.01-1.01-1.52-3.36-1.52-7.06c0-1.34,0.42-3.53,1.27-6.56c0.84-3.03,2.6-7.4,5.29-13.12
		c4.37-10.42,10.17-23.54,17.41-39.36c7.23-15.81,15.05-31.95,23.47-48.45c8.75-17.16,18.08-33.98,28.01-50.47
		c9.92-16.48,19.76-32.46,29.52-47.94c4.37-7.06,8.74-14.14,13.12-21.2c4.36-7.06,8.74-14.13,13.11-21.19
		c1.68-3.7,3.11-7.23,4.29-10.6c1.18-3.36,1.77-6.56,1.77-9.59c0-6.72-2.19-11.94-6.56-15.64c-4.37-3.7-9.42-5.55-15.14-5.55
		c-4.71,0-9.43,1.1-14.13,3.28c-4.71,2.19-9.08,5.63-13.12,10.34v0.51c-2.02,2.01-5.22,5.97-9.58,11.85
		c-4.38,5.89-9.43,13.21-15.14,21.96c-5.73,8.75-11.86,18.59-18.42,29.52c-6.56,10.94-13.04,22.63-19.43,35.08l-13.12,24.72v8.07
		c-5.04-4.7-9.67-8.24-13.88-10.59c-4.21-2.35-8.16-4.04-11.86-5.05c-18.17-0.67-36.42,4.12-54.76,14.38
		c-18.33,10.26-34.99,23.3-49.96,39.11c-14.97,15.82-27.17,33.15-36.59,51.98c-2.03,4.05-3.78,8.03-5.37,11.96
		c-2.43,3.05-4.78,6.2-7.24,9.23c-8.76,10.77-18.34,20.02-28.76,27.76l-4.54,3.53l0.51-0.5c-3.03,2.35-5.89,4.54-8.58,6.56
		c-2.7,2.02-4.97,3.28-6.81,3.79c-1.85,0.51-3.28,0.25-4.29-0.76c-1-1.01-1.51-3.36-1.51-7.06c0-1.34,0.42-3.53,1.26-6.56
		c0.83-3.03,2.6-7.4,5.3-13.12c4.37-10.42,10.17-23.54,17.41-39.36c7.23-15.81,15.05-31.95,23.46-48.45
		c8.75-17.16,18.08-33.98,28.01-50.47c9.92-16.48,19.76-32.46,29.52-47.94c4.37-7.06,8.74-14.14,13.12-21.2
		c4.36-7.06,8.74-14.13,13.11-21.19c1.68-3.7,3.11-7.23,4.29-10.6c1.18-3.36,1.77-6.56,1.77-9.59c0-6.72-2.19-11.94-6.56-15.64
		c-4.37-3.7-9.42-5.55-15.14-5.55c-4.72,0-9.43,1.1-14.13,3.28c-4.71,2.19-9.08,5.63-13.12,10.34v0.51
		c-2.02,2.01-5.22,5.97-9.59,11.85c-4.38,5.89-9.43,13.21-15.14,21.96c-5.72,8.75-11.86,18.59-18.42,29.52
		c-6.56,10.94-13.04,22.63-19.43,35.08l-13.12,24.72v8.07c-5.04-4.7-9.67-8.24-13.88-10.59c-4.21-2.35-8.16-4.04-11.86-5.05
		c-18.17-0.67-36.42,4.12-54.76,14.38c-18.33,10.26-34.99,23.3-49.96,39.11c-14.97,15.82-27.17,33.15-36.59,51.98
		c-1.76,3.52-3.3,6.99-4.73,10.42c-1.54,1.91-3.05,3.81-4.61,5.73c-9.25,11.44-19.1,21.54-29.52,30.28
		c-20.19,17.15-30.28,19.52-30.28,7.06c0-2.02,0.76-5.13,2.27-9.34c1.52-4.21,3.44-8.83,5.8-13.88c3.37-8.07,7.65-17.07,12.87-27
		c5.21-9.92,10.42-19.68,15.64-29.27c5.21-9.59,10.17-18.25,14.89-25.99c4.71-7.73,8.58-13.45,11.61-17.15
		c2.69-3.03,4.45-5.8,5.3-8.32c0.84-2.53,1.26-5.13,1.26-7.82c0-5.72-2.7-10.68-8.08-14.89c-5.39-4.2-11.61-6.3-18.67-6.3
		c-4.04,0-8.16,0.84-12.36,2.52c-4.21,1.69-7.99,4.38-11.36,8.08v0.5l-5.05,5.04c-3.02-3.02-6.73-6.05-11.1-9.08
		c-4.37-3.03-8.25-5.05-11.6-6.06c-12.11,0.34-24.31,2.95-36.59,7.82c-12.29,4.88-24.22,11.45-35.83,19.69
		c-11.61,8.25-22.54,17.66-32.8,28.26c-10.26,10.6-19.26,21.7-26.99,33.31c-7.74,11.6-13.8,23.39-18.17,35.32
		c-4.38,11.94-6.56,23.3-6.56,34.06c0,20.52,12.11,33.31,36.34,38.35c15.81,1.68,30.7-1.01,44.66-8.08
		c13.96-7.06,27.16-17.15,39.62-30.28c1.34,10.09,4.2,18.59,8.57,25.49c4.37,6.89,10.6,11.18,18.67,12.87
		c12.44,1.34,24.8-1.52,37.09-8.58c12.28-7.06,24.13-16.32,35.57-27.75c0.05-0.05,0.1-0.1,0.15-0.15
		c0.74,19.39,12.74,31.6,36.19,36.49c16.82,1.68,32.21-1.01,46.17-8.08c13.96-7.06,27.17-17.32,39.62-30.78
		c1.68,9.08,4.36,17.41,8.07,24.98c3.7,7.57,9.75,12.19,18.17,13.88c12.44,1.34,24.73-1.44,36.84-8.32
		c12.1-6.9,23.71-15.98,34.82-27.26c0.38-0.38,0.75-0.8,1.13-1.19c0.63,19.56,12.64,31.86,36.21,36.77
		c16.82,1.68,32.21-1.01,46.18-8.08c13.96-7.06,27.16-17.32,39.62-30.78c1.68,9.08,4.36,17.41,8.07,24.98
		c3.7,7.57,9.75,12.19,18.17,13.88c12.44,1.34,24.73-1.44,36.84-8.32c12.11-6.9,23.72-15.98,34.82-27.26
		c3.3-3.35,6.55-6.84,9.76-10.41c0.87,14.25,5.91,25.15,15.21,32.61c10.25,8.24,22.96,12.36,38.1,12.36
		c8.74,0,17.99-1.43,27.75-4.29c9.75-2.86,19.51-7.14,29.27-12.87c5.72-3.36,11.61-7.74,17.66-13.12
		c6.06-5.38,12.28-11.44,18.67-18.17c15.13,2.35,30.78-0.09,46.93-7.32c16.15-7.23,30.44-19.93,42.89-38.1
		C1279.75,288.83,1280.42,285.8,1279.75,283.1 M527.85,232.38c-0.34,3.2-1.01,6.56-2.02,10.1c-1.01,3.53-2.01,6.65-3.03,9.34
		l-9.08,21.2c-6.05,12.45-12.7,24.22-19.93,35.32c-7.24,11.1-14.56,20.78-21.96,29.02c-7.4,8.25-14.55,14.55-21.45,18.92
		c-6.9,4.38-13.04,6.23-18.42,5.55c-1.69-0.33-3.36-1.27-5.05-2.78c-1.68-1.51-3.02-3.61-4.04-6.31c-1.01-2.69-1.51-6.05-1.51-10.09
		c0-4.04,0.84-8.58,2.52-13.62c2.69-7.4,6.38-15.47,11.1-24.23c4.71-8.74,9.92-17.49,15.64-26.24c5.72-8.75,11.77-17.16,18.17-25.23
		c6.38-8.08,12.87-15.05,19.43-20.94c6.56-5.88,12.95-10.26,19.18-13.12c6.22-2.85,11.86-3.45,16.9-1.77
		c2.02,1.01,3.19,2.95,3.53,5.81C528.18,226.17,528.18,229.2,527.85,232.38 M747.62,236.93c-0.85,4.21-1.85,8.16-3.02,11.86
		c-1.19,3.7-2.11,6.05-2.78,7.06v-0.51l-8.08,17.66c-6.06,12.45-12.7,24.22-19.93,35.32c-7.24,11.1-14.47,20.78-21.7,29.02
		c-7.24,8.25-14.3,14.55-21.2,18.92c-6.9,4.38-13.03,6.23-18.41,5.55c-1.69-0.33-3.37-1.27-5.05-2.78
		c-1.69-1.51-3.02-3.61-4.03-6.31c-1.01-2.69-1.52-6.05-1.52-10.09c0-4.04,0.83-8.58,2.52-13.62c4.04-11.1,10.1-23.55,18.17-37.34
		c8.08-13.79,16.91-26.58,26.5-38.35c9.59-11.77,19.17-21.27,28.76-28.51c9.59-7.23,18.25-9.67,25.99-7.32
		c2.69,1.35,4.2,3.87,4.54,7.57C748.71,228.78,748.45,232.73,747.62,236.93 M968.65,236.93c-0.85,4.21-1.85,8.16-3.02,11.86
		c-1.19,3.7-2.11,6.05-2.78,7.06v-0.51l-8.08,17.66c-6.06,12.45-12.7,24.22-19.93,35.32c-7.24,11.1-14.47,20.78-21.7,29.02
		c-7.24,8.25-14.3,14.55-21.2,18.92c-6.9,4.38-13.04,6.23-18.41,5.55c-1.69-0.33-3.38-1.27-5.05-2.78
		c-1.69-1.51-3.02-3.61-4.03-6.31c-1.01-2.69-1.52-6.05-1.52-10.09c0-4.04,0.84-8.58,2.52-13.62c4.03-11.1,10.09-23.55,18.17-37.34
		c8.07-13.79,16.9-26.58,26.49-38.35c9.59-11.77,19.17-21.27,28.76-28.51c9.59-7.23,18.24-9.67,25.98-7.32
		c2.69,1.35,4.21,3.87,4.54,7.57C969.74,228.78,969.48,232.73,968.65,236.93 M1129.88,342.15c-7.41,6.73-14.14,11.78-20.19,15.13
		c-6.05,3.37-11.02,4.63-14.88,3.79c-3.87-0.83-5.8-4.46-5.8-10.85c0-4.36,1.26-10.51,3.78-18.41c2.53-7.91,7.15-18.25,13.88-31.04
		c2.35-5.38,5.38-11.1,9.08-17.16c3.7-6.05,7.9-12.61,12.62-19.68c1.68,11.78,4.62,22.29,8.83,31.54
		c4.2,9.26,9.17,17.08,14.89,23.47C1144.67,327.69,1137.27,335.42,1129.88,342.15 M1193.45,236.67v0.51
		c-1.68,10.77-4.63,20.94-8.83,30.53c-4.21,9.59-9.51,19.09-15.9,28.51c-10.43-15.14-15.64-29.44-15.64-42.89
		c0-8.08,1.6-15.47,4.8-22.2c3.19-6.73,8.15-12.45,14.89-17.16c5.72-2.35,10.68-2.02,14.88,1.01
		C1191.85,218,1193.79,225.24,1193.45,236.67"/>
	<path class="st12" d="M700.38,559.03V507.6c0-4.22,1.14-7.24,3.43-9.03c2.29-1.8,5.61-2.7,9.98-2.7c-0.06,0.43-0.14,1.06-0.2,1.9
		c-0.08,0.78-0.13,1.81-0.17,3.12c-0.03,1.3-0.05,3.01-0.05,5.13l-0.21,51.43c0,4.22-1.12,7.25-3.38,9.08
		c-2.25,1.83-5.52,2.75-9.81,2.75c0.07-0.43,0.14-1.06,0.2-1.9c0.07-0.77,0.11-1.83,0.11-3.17
		C700.27,562.87,700.31,561.14,700.38,559.03"/>
	<path class="st12" d="M757.93,570.33c-4.65,0-9.15-0.81-13.52-2.43c-4.36-1.61-8.23-4.01-11.57-7.18
		c-3.34-3.17-6.03-7.11-8.08-11.82c-2.04-4.71-3.06-10.17-3.06-16.36c0-6.2,1.02-11.66,3.06-16.37c2.05-4.72,4.74-8.66,8.08-11.82
		c3.34-3.17,7.2-5.55,11.57-7.13c4.37-1.58,8.87-2.38,13.52-2.38c2.96,0,5.56,0.33,7.82,1c2.25,0.67,4.21,1.46,5.86,2.38
		c1.66,0.92,2.98,1.85,3.96,2.79c0.99,0.95,1.66,1.71,2.01,2.27c-0.21,0.42-0.46,0.81-0.74,1.16c-0.22,0.36-0.48,0.69-0.79,1
		c-0.32,0.32-0.65,0.55-1,0.69c-0.78,0.5-1.66,0.74-2.64,0.74c-0.99,0-1.9-0.16-2.75-0.48c-0.85-0.32-1.78-0.65-2.79-1
		c-1.02-0.36-2.24-0.69-3.64-1.01c-1.41-0.31-3.17-0.47-5.28-0.47c-2.75,0-5.44,0.57-8.08,1.69c-2.64,1.12-5.02,2.85-7.12,5.17
		c-2.11,2.32-3.81,5.3-5.07,8.92c-1.27,3.63-1.9,7.9-1.9,12.84c0,5,0.63,9.29,1.9,12.88c1.26,3.59,2.96,6.56,5.07,8.92
		c2.1,2.36,4.48,4.1,7.12,5.23c2.64,1.13,5.33,1.69,8.08,1.69c2.11,0,3.87-0.16,5.28-0.47c1.4-0.32,2.62-0.65,3.64-1
		c1.02-0.35,1.95-0.69,2.79-1c0.85-0.32,1.76-0.47,2.75-0.47c0.98,0,1.86,0.25,2.64,0.74c0.77,0.56,1.38,1.13,1.8,1.68
		c0.28,0.36,0.52,0.74,0.74,1.17c-0.35,0.63-1.02,1.42-2.01,2.38c-0.99,0.95-2.31,1.87-3.96,2.74c-1.65,0.88-3.6,1.66-5.86,2.33
		C763.49,569.99,760.89,570.33,757.93,570.33"/>
	<path class="st12" d="M832.91,558.18v0.74c0,2.39-0.42,4.26-1.27,5.59c-0.7,1.41-1.79,2.47-3.28,3.17
		c-1.33,0.77-2.86,1.21-4.59,1.32c-1.72,0.1-3.29,0.19-4.7,0.26c-6.41,0.28-11.92-0.06-16.53-1.01c-4.62-0.95-8.42-2.76-11.41-5.44
		c-2.99-2.67-5.21-6.32-6.65-10.93c-1.45-4.61-2.17-10.4-2.17-17.38v-19.96c0-4.78,0.74-8.55,2.22-11.3
		c0.77-1.41,1.68-2.54,2.75-3.38c1.05-0.85,2.28-1.55,3.69-2.11c0.91-0.35,1.86-0.65,2.86-0.89c0.98-0.25,2.03-0.44,3.17-0.58
		c1.47-0.14,3.02-0.25,4.65-0.32c1.61-0.08,3.3-0.11,5.07-0.11h9.29c4.51,0,7.75-0.07,9.72-0.21c1.98-0.14,3.25-0.25,3.8-0.32h0.85
		v0.64c0,2.39-0.42,4.26-1.27,5.59c-0.77,1.34-1.86,2.43-3.27,3.28c-1.41,0.7-2.91,1.13-4.48,1.27c-1.59,0.14-3.19,0.22-4.81,0.22
		h-17.96c-0.42,0.07-0.77,0.14-1.05,0.21c-0.28,0.07-0.53,0.18-0.74,0.32c-0.42,0.21-0.74,0.49-0.95,0.84
		c-0.28,0.36-0.46,0.83-0.54,1.43c-0.07,0.6-0.09,1.28-0.09,2.06l0.31,12.88h25.98c0,3.17-0.88,5.7-2.64,7.6
		c-1.76,1.9-4.26,2.85-7.49,2.85h-15.95c-0.13,4.72,0.17,8.64,0.96,11.78c0.77,3.13,2.02,5.61,3.74,7.45
		c1.73,1.83,3.99,3.13,6.77,3.91c2.78,0.77,6.11,1.16,9.98,1.16c4.58,0,8.12-0.07,10.61-0.21c2.51-0.14,4.03-0.24,4.6-0.32h0.2
		L832.91,558.18z"/>
	<path class="st12" d="M897.11,570.33c-4.65,0-9.15-0.81-13.52-2.43c-4.36-1.61-8.22-4.01-11.57-7.18
		c-3.34-3.17-6.03-7.11-8.08-11.82c-2.04-4.71-3.06-10.17-3.06-16.36c0-6.2,1.02-11.66,3.06-16.37c2.05-4.72,4.74-8.66,8.08-11.82
		c3.34-3.17,7.2-5.55,11.57-7.13c4.37-1.58,8.87-2.38,13.52-2.38c2.96,0,5.56,0.33,7.82,1c2.25,0.67,4.21,1.46,5.86,2.38
		c1.66,0.92,2.98,1.85,3.97,2.79c0.99,0.95,1.66,1.71,2,2.27c-0.21,0.42-0.45,0.81-0.74,1.16c-0.22,0.36-0.48,0.69-0.79,1
		c-0.32,0.32-0.65,0.55-1,0.69c-0.78,0.5-1.66,0.74-2.64,0.74c-0.99,0-1.9-0.16-2.75-0.48c-0.85-0.32-1.78-0.65-2.8-1
		c-1.02-0.36-2.24-0.69-3.64-1.01c-1.41-0.31-3.17-0.47-5.28-0.47c-2.75,0-5.44,0.57-8.08,1.69c-2.64,1.12-5.02,2.85-7.12,5.17
		c-2.11,2.32-3.81,5.3-5.08,8.92c-1.27,3.63-1.9,7.9-1.9,12.84c0,5,0.63,9.29,1.9,12.88c1.27,3.59,2.96,6.56,5.08,8.92
		c2.1,2.36,4.48,4.1,7.12,5.23c2.64,1.13,5.33,1.69,8.08,1.69c2.11,0,3.87-0.16,5.28-0.47c1.41-0.32,2.62-0.65,3.64-1
		c1.02-0.35,1.95-0.69,2.8-1c0.85-0.32,1.76-0.47,2.75-0.47c0.98,0,1.86,0.25,2.64,0.74c0.77,0.56,1.38,1.13,1.8,1.68
		c0.28,0.36,0.52,0.74,0.74,1.17c-0.35,0.63-1.02,1.42-2,2.38c-0.99,0.95-2.31,1.87-3.97,2.74c-1.65,0.88-3.6,1.66-5.86,2.33
		C902.67,569.99,900.07,570.33,897.11,570.33"/>
	<path class="st12" d="M935.44,559.03c0,2.18,0.02,3.92,0.05,5.23c0.04,1.3,0.09,2.34,0.17,3.11c0.07,0.84,0.14,1.48,0.21,1.9
		c-4.37,0-7.67-0.9-9.92-2.7c-2.26-1.8-3.38-4.8-3.38-9.03v-44.67c0-3.38,0.6-6.2,1.79-8.45c1.2-2.25,2.83-4.06,4.91-5.43
		c2.08-1.37,4.56-2.36,7.45-2.96c2.88-0.59,6.02-0.99,9.39-1.21c2.19-0.14,4.51-0.06,6.98,0.26c2.46,0.32,4.91,0.88,7.34,1.69
		c2.43,0.81,4.74,1.85,6.92,3.12c2.17,1.27,4.09,2.83,5.75,4.7c1.66,1.87,2.96,4,3.91,6.39c0.95,2.4,1.35,5.07,1.22,8.02
		c-0.15,4.16-1.46,7.86-3.97,11.09c-2.49,3.24-6.1,5.56-10.81,6.97c1.61,0.56,2.99,1.46,4.11,2.69c1.13,1.23,2.13,2.71,3.01,4.44
		c0.88,1.72,1.77,3.6,2.64,5.65c0.88,2.04,1.85,4.12,2.9,6.23c0.77,1.62,1.62,3.08,2.53,4.38c0.91,1.31,1.76,2.45,2.53,3.44
		c0.85,1.12,1.72,2.11,2.64,2.95c-0.64,0.63-1.34,1.16-2.12,1.58c-0.77,0.35-1.69,0.63-2.74,0.84c-1.06,0.21-2.33,0.21-3.8,0
		c-1.69-0.21-3.25-0.7-4.65-1.48c-1.41-0.77-2.81-1.97-4.23-3.59c-1.4-1.62-2.9-3.76-4.49-6.44c-1.59-2.67-3.4-6.02-5.43-10.03
		c-1.2-2.25-2.64-3.96-4.34-5.13c-1.68-1.16-3.76-2.09-6.22-2.8c-0.42-0.14-0.83-0.24-1.22-0.32c-0.38-0.07-0.75-0.18-1.1-0.32
		c-0.49-0.07-1.19-0.2-2.07-0.37c-0.88-0.18-1.77-0.33-2.69-0.47c-1.06-0.21-2.15-0.43-3.27-0.64V559.03z M946.1,505.17
		c-2.1,0.21-3.85,0.58-5.22,1.11c-1.37,0.53-2.47,1.16-3.28,1.9c-0.81,0.74-1.39,1.57-1.74,2.48c-0.35,0.92-0.53,1.83-0.53,2.75
		v3.64c0,1.51,0.02,3.05,0.06,4.59c0.03,1.55,0.05,2.98,0.05,4.28v2.59c1.62,0.36,3.27,0.68,4.96,0.95c1.41,0.21,2.96,0.4,4.65,0.58
		c1.69,0.18,3.34,0.27,4.96,0.27c4.45,0,7.92-0.88,10.46-2.64c2.53-1.76,4.05-4.65,4.54-8.66c0.28-2.6-0.11-4.83-1.16-6.7
		c-1.05-1.87-2.51-3.34-4.33-4.43c-1.83-1.09-3.95-1.87-6.34-2.33C950.79,505.09,948.43,504.96,946.1,505.17"/>
	<path class="st12" d="M1040.51,558.18v0.74c0,2.39-0.42,4.26-1.27,5.59c-0.7,1.41-1.79,2.47-3.27,3.17
		c-1.34,0.77-2.87,1.21-4.59,1.32c-1.72,0.1-3.29,0.19-4.69,0.26c-6.41,0.28-11.92-0.06-16.53-1.01c-4.62-0.95-8.42-2.76-11.41-5.44
		c-2.99-2.67-5.21-6.32-6.65-10.93c-1.45-4.61-2.17-10.4-2.17-17.38v-19.96c0-4.78,0.74-8.55,2.22-11.3
		c0.77-1.41,1.69-2.54,2.75-3.38c1.05-0.85,2.28-1.55,3.69-2.11c0.91-0.35,1.86-0.65,2.85-0.89c0.99-0.25,2.04-0.44,3.17-0.58
		c1.47-0.14,3.02-0.25,4.65-0.32c1.62-0.08,3.3-0.11,5.07-0.11h9.29c4.51,0,7.75-0.07,9.72-0.21c1.97-0.14,3.24-0.25,3.8-0.32h0.85
		v0.64c0,2.39-0.42,4.26-1.26,5.59c-0.77,1.34-1.86,2.43-3.28,3.28c-1.4,0.7-2.9,1.13-4.48,1.27c-1.59,0.14-3.19,0.22-4.8,0.22
		h-17.96c-0.42,0.07-0.77,0.14-1.05,0.21c-0.28,0.07-0.53,0.18-0.74,0.32c-0.42,0.21-0.74,0.49-0.94,0.84
		c-0.28,0.36-0.46,0.83-0.54,1.43c-0.07,0.6-0.1,1.28-0.1,2.06l0.31,12.88h25.98c0,3.17-0.89,5.7-2.64,7.6
		c-1.76,1.9-4.26,2.85-7.49,2.85h-15.95c-0.14,4.72,0.17,8.64,0.95,11.78c0.77,3.13,2.02,5.61,3.74,7.45
		c1.72,1.83,3.99,3.13,6.77,3.91c2.77,0.77,6.11,1.16,9.98,1.16c4.58,0,8.12-0.07,10.61-0.21c2.51-0.14,4.04-0.24,4.6-0.32h0.2
		L1040.51,558.18z"/>
	<path class="st12" d="M1111.48,563.36c0.28,0.7,0.56,1.38,0.85,2.01c0.28,0.63,0.52,1.23,0.74,1.8c0.27,0.63,0.52,1.27,0.74,1.9
		c-2.12,0.56-4.13,0.74-6.03,0.52c-1.61-0.14-3.26-0.63-4.91-1.47c-1.66-0.85-2.94-2.39-3.86-4.65c-0.42-0.98-1.2-2.92-2.32-5.81
		c-1.13-2.89-2.46-6.27-4.01-10.14h-29.99c-1.55,3.88-2.89,7.26-4.01,10.14c-1.13,2.89-1.9,4.82-2.33,5.81
		c-0.98,2.25-2.29,3.8-3.91,4.65c-1.62,0.84-3.24,1.33-4.85,1.47c-1.9,0.21-3.91,0.03-6.02-0.52c0.22-0.63,0.46-1.27,0.74-1.9
		c0.22-0.57,0.44-1.16,0.68-1.8c0.26-0.63,0.55-1.3,0.91-2.01c0.49-1.27,1.36-3.44,2.59-6.54c1.23-3.1,2.66-6.65,4.28-10.66
		c1.62-4.02,3.32-8.24,5.12-12.68c1.8-4.43,3.48-8.66,5.07-12.67c1.57-4.01,3.01-7.55,4.27-10.61c1.27-3.07,2.15-5.23,2.64-6.5
		c0.77-1.97,1.59-3.54,2.47-4.69c0.88-1.16,1.75-2.06,2.6-2.69c0.84-0.64,1.67-1.04,2.47-1.22c0.81-0.18,1.57-0.26,2.27-0.26
		c0.7,0,1.46,0.08,2.26,0.26c0.82,0.18,1.64,0.59,2.49,1.22c0.85,0.63,1.7,1.53,2.59,2.69c0.87,1.16,1.71,2.72,2.47,4.69
		c0.5,1.27,1.36,3.43,2.59,6.5c1.23,3.06,2.65,6.6,4.28,10.61c1.62,4.01,3.32,8.24,5.12,12.67c1.79,4.43,3.5,8.66,5.13,12.68
		c1.62,4.01,3.04,7.57,4.28,10.66C1110.13,559.91,1110.99,562.09,1111.48,563.36 M1088.67,537.07c-1.4-3.52-2.78-6.95-4.11-10.3
		c-1.34-3.34-2.5-6.35-3.49-9.03c-1.27-3.1-2.4-6.05-3.38-8.87c-1.13,2.82-2.29,5.77-3.48,8.87c-1.06,2.68-2.22,5.69-3.48,9.03
		c-1.27,3.35-2.61,6.78-4.02,10.3H1088.67z"/>
	<path class="st12" d="M1188.46,559.03c0,2.11,0.02,3.83,0.06,5.17c0.03,1.33,0.09,2.39,0.15,3.17c0.07,0.84,0.15,1.48,0.22,1.9
		c-4.3,0-7.61-0.9-9.93-2.7c-2.32-1.79-3.49-4.8-3.49-9.03l0.63-49.31c-1.97,5.7-3.87,11.02-5.7,15.94
		c-0.77,2.11-1.57,4.28-2.38,6.5c-0.81,2.21-1.58,4.32-2.32,6.28c-0.74,1.97-1.42,3.79-2.06,5.44c-0.63,1.66-1.2,3.01-1.7,4.07
		c-1.05,2.32-2.39,3.92-4.01,4.8c-1.63,0.88-3.17,1.39-4.64,1.53c-1.76,0.14-3.56-0.11-5.39-0.74l-16.26-43.82l0.43,50.8
		c0,2.11,0.01,3.83,0.05,5.17c0.04,1.33,0.09,2.39,0.16,3.17c0.07,0.84,0.15,1.48,0.21,1.9c-4.36,0-7.69-0.9-9.98-2.7
		c-2.29-1.79-3.43-4.8-3.43-9.03v-60.83l0.42-0.21c0.42-0.06,0.91-0.18,1.48-0.32c0.49-0.07,1.03-0.14,1.64-0.21
		c0.59-0.08,1.28-0.11,2.06-0.11c2.25,0,4.37,0.28,6.33,0.84c1.97,0.57,3.82,1.5,5.55,2.8c1.72,1.3,3.32,3.06,4.8,5.28
		c1.48,2.21,2.86,4.98,4.12,8.29c0.07,0.29,0.26,0.84,0.58,1.69c0.32,0.85,0.69,1.87,1.11,3.07c0.43,1.2,0.88,2.5,1.38,3.91
		c0.49,1.41,0.98,2.85,1.48,4.33c1.2,3.38,2.5,7.14,3.91,11.3l8.34-24.29c1.27-3.31,2.64-6.08,4.12-8.29
		c1.47-2.22,3.07-3.98,4.81-5.28c1.72-1.31,3.56-2.24,5.54-2.8c1.97-0.56,4.07-0.84,6.33-0.84c0.77,0,1.46,0.03,2.05,0.11
		c0.6,0.06,1.14,0.14,1.64,0.21c0.56,0.14,1.05,0.25,1.48,0.32l0.42,0.21L1188.46,559.03z"/>
</g>
</svg>
