<?xml version="1.0" encoding="utf-8"?>
<!-- Generator: Adobe Illustrator 25.4.1, SVG Export Plug-In . SVG Version: 6.00 Build 0)  -->
<svg version="1.1" id="Layer_1" xmlns="http://www.w3.org/2000/svg" xmlns:xlink="http://www.w3.org/1999/xlink" x="0px" y="0px"
	 viewBox="0 0 1280.32 478.53" style="enable-background:new 0 0 1280.32 478.53;" xml:space="preserve">
<style type="text/css">
	.st0{fill:#060606;}
	.st1{fill:#FCFCFC;}
	.st2{fill:#CC2125;}
	.st3{fill-rule:evenodd;clip-rule:evenodd;fill:#1B1B1C;}
	.st4{fill-rule:evenodd;clip-rule:evenodd;fill:#CC2125;}
	.st5{fill-rule:evenodd;clip-rule:evenodd;fill:#F7F7F7;}
</style>
<g>
	<path class="st5" d="M553.36,283.16h34.69c0.21,0,0.42,0.09,0.56,0.25c0.14,0.16,0.22,0.37,0.2,0.58
		c-0.64,7.36-5.32,61.06-5.32,61.06h-24.75L553.36,283.16z M494.42,475.3h42.8V283.17h-42.8V475.3z M434.4,437.89h43.87v37.41
		h-86.66V283.17h42.79V437.89z M299.82,411.26h22.07l-11.03-67.55L299.82,411.26z M332.39,283.16l43.07,192.15h-42.79l-4.85-29.34
		h-33.63l-4.85,29.34h-42.79l43.05-192.15H332.39z M169.55,374.39c20.73,0,25.04-5.39,25.04-26.92c0-21.53-4.3-29.59-25.04-29.59
		V374.39z M169.55,402.91v72.4h-42.79V283.17h42.79c50.33,0,67.83,18.28,67.83,58.66c0,22.07-4.04,38.2-16.41,45.74
		c22.6,17.5,14.52,65.67,20.18,87.74h-42.79c-3.76-18.84,3.5-55.72-13.19-72.4H169.55z M42.79,379.77
		c20.73,0,25.04-8.07,25.04-29.59c0-21.54-4.31-32.31-25.04-32.31V379.77z M42.79,475.3H0V283.16h42.79
		c50.33,0,67.83,23.67,67.83,66.74c0,40.37-17.5,63.79-67.83,63.79V475.3z"/>
	<path class="st5" d="M1203.09,379.5c0,53.29,1.6,61.62,15.06,61.62c13.46,0,15.08-8.33,15.08-61.62c0-52.21-1.62-62.17-15.08-62.17
		C1204.69,317.33,1203.09,327.29,1203.09,379.5z M1280.32,379.5c0,72.4-4.31,99.04-62.17,99.04c-57.86,0-62.17-26.64-62.17-99.04
		c0-69.97,4.31-99.58,62.17-99.58C1276.01,279.92,1280.32,309.53,1280.32,379.5z M1092.99,411.8h46.83
		c0,39.56-16.96,66.73-58.92,66.73c-56.8,0-64.87-23.95-64.87-99.02c0-72.66,9.15-99.58,64.87-99.58c41.97,0,58.92,27.2,58.92,66.75
		h-46.83c0-17.22-2.42-29.34-14.25-29.34c-13.46,0-15.61,9.95-15.61,62.17c0,53.28,1.88,61.62,15.34,61.62
		C1090.3,441.13,1092.99,429.56,1092.99,411.8z M922.62,379.5c0,53.29,1.6,61.62,15.06,61.62c13.46,0,15.08-8.33,15.08-61.62
		c0-52.21-1.62-62.17-15.08-62.17C924.23,317.33,922.62,327.29,922.62,379.5z M999.86,379.5c0,72.4-4.31,99.04-62.17,99.04
		c-57.86,0-62.17-26.64-62.17-99.04c0-69.97,4.31-99.58,62.17-99.58C995.55,279.92,999.86,309.53,999.86,379.5z M859.36,283.16
		V475.3h-42.8v-75.34h-28.77v75.34h-42.8V283.16h42.8v79.39h28.77v-79.39H859.36z M682.01,411.8h46.83
		c0,39.56-16.96,66.73-58.92,66.73c-56.8,0-64.87-23.95-64.87-99.02c0-72.66,9.15-99.58,64.87-99.58c41.97,0,58.92,27.2,58.92,66.75
		h-46.83c0-17.22-2.42-29.34-14.25-29.34c-13.46,0-15.6,9.95-15.6,62.17c0,53.28,1.88,61.62,15.34,61.62
		C679.32,441.13,682.01,429.56,682.01,411.8z"/>
	<path class="st5" d="M556.39,56.69c-3.39-3.38-5.08-7.32-5.08-11.82c0-4.51,1.69-8.46,5.08-11.82c3.21-3.39,7.07-5.08,11.58-5.08
		c4.33,0,8.19,1.69,11.58,5.08c3.21,3.36,4.81,7.31,4.81,11.82c0,4.5-1.6,8.44-4.81,11.82c-3.39,3.22-7.25,4.82-11.58,4.82
		C563.46,61.51,559.6,59.92,556.39,56.69z M575.2,26.06c-2.89-3.06-4.33-6.6-4.33-10.63c0-4.18,1.44-7.79,4.33-10.85
		C578.27,1.54,581.88,0,586.06,0c4.03,0,7.57,1.54,10.61,4.58c3.06,3.06,4.59,6.67,4.59,10.85c0,4.03-1.54,7.57-4.59,10.63
		c-3.04,3.06-6.59,4.57-10.61,4.57C581.88,30.62,578.27,29.11,575.2,26.06z M593.06,56.69c-3.38-3.38-5.06-7.32-5.06-11.82
		c0-4.51,1.69-8.46,5.06-11.82c3.21-3.39,7-5.08,11.33-5.08c4.51,0,8.46,1.69,11.83,5.08c3.38,3.36,5.07,7.31,5.07,11.82
		c0,4.5-1.69,8.44-5.07,11.82c-3.38,3.22-7.32,4.82-11.83,4.82C600.07,61.51,596.27,59.92,593.06,56.69z M407.04,141.87
		c4.18,2.41,10.53,3.61,19.05,3.61h10.14v-5.3l-0.25-7.49l-0.24-7.49c-0.48-5.45-1.3-10.05-2.41-13.74
		c-2.91-9.33-8.69-13.99-17.38-13.99c-5.8,0-10.21,2.33-13.27,6.99c-3.06,4.35-4.58,10.13-4.58,17.38
		C398.11,131.49,401.09,138.17,407.04,141.87z M484.01,175.16h-19.79c-2.73,10.61-8.52,19.37-17.37,26.29
		c-11.26,9.02-26.06,13.52-44.39,13.52c-5.8,0-10.46-1.37-14.01-4.11c-3.53-2.73-5.3-6.1-5.3-10.13v-11.82
		c22.35-0.48,38.11-5.15,47.28-13.99c-17.85-0.97-31.69-4.43-41.5-10.38c-13.51-8.21-20.26-21.39-20.26-39.58
		c0-15.43,4.18-28.06,12.54-37.87c9.01-10.46,21.24-15.69,36.68-15.69c5.94,0,11.89,1.05,17.85,3.15
		c10.13,4.18,17.85,11.58,23.17,22.2c4.83,9.33,7.24,20.18,7.24,32.58l-0.25,16.15h18.1h6.03l18.57,0V78.65h14.96
		c4.35,0,8.36,1.52,12.08,4.57c3.85,3.39,5.78,7.33,5.78,11.83v50.43h15.93c7.87-0.64,11.82-5.22,11.82-13.74V78.65H581
		c13.99,0,20.99,7.07,20.99,21.23v18.58c0,9.33-0.4,17.05-1.2,23.15c2.09,2.59,6.92,3.86,14.47,3.86
		c9.49-0.64,14.23-5.22,14.23-13.74V78.65h11.85c14.3,0,21.46,7.07,21.46,21.23v33.06c0,12.23-3.54,22.03-10.61,29.43
		c-7.4,8.04-17.93,12.3-31.61,12.79h-6.28c-2.73-0.15-5.47-0.48-8.21-0.97c-8.36-1.12-15.2-3.29-20.51-6.52
		c-7.87,5-18.89,7.49-33.04,7.49l-62.5,0H484.01z M157.08,141.87c4.18,2.41,10.53,3.61,19.05,3.61h10.14v-5.3l-0.25-7.49l-0.23-7.49
		c-0.48-5.45-1.3-10.05-2.41-13.74c-2.91-9.33-8.69-13.99-17.38-13.99c-5.8,0-10.21,2.33-13.27,6.99
		c-3.06,4.35-4.58,10.13-4.58,17.38C148.15,131.49,151.13,138.17,157.08,141.87z M336.35,175.16h-122.1
		c-2.74,10.61-8.53,19.37-17.37,26.29c-11.26,9.02-26.06,13.52-44.39,13.52c-5.8,0-10.46-1.37-14-4.11c-3.53-2.73-5.3-6.1-5.3-10.13
		v-11.82c22.35-0.48,38.11-5.15,47.28-13.99c-17.85-0.97-31.69-4.43-41.5-10.38c-13.51-8.21-20.26-21.39-20.26-39.58
		c0-15.43,4.18-28.06,12.54-37.87c9.01-10.46,21.24-15.69,36.69-15.69c5.94,0,11.89,1.05,17.85,3.15
		c10.13,4.18,17.85,11.58,23.16,22.2c4.82,9.33,7.24,20.18,7.24,32.58l-0.25,16.15h90.01c-0.65-10.28-3.86-19.3-9.66-27.01
		c-1.92-2.42-3.94-4.51-6.03-6.28c-0.8-0.64-1.52-1.2-2.16-1.69l-0.73-0.48l-0.24-0.24v0.24c-6.77-4.18-13.67-6.27-20.74-6.27
		c-4.19,0-8.37,0.4-12.56,1.2l-6.5-8.44c-2.41-3.39-3.63-6.75-3.63-10.13c0-5.47,2.57-10.23,7.72-14.24l88.8-66.35l8.21,10.61
		c1.92,2.41,2.89,5.71,2.89,9.89c0,4.81-1.69,8.61-5.06,11.33l-55.74,41.75h0.72c0.33,0,0.8,0.08,1.45,0.23
		c0.64,0.33,1.36,0.65,2.17,0.97c2.26,0.65,4.41,1.54,6.5,2.66c6.6,3.22,11.92,7.24,15.93,12.05l0.72,0.98l0.98,1.2
		c0.95,1.12,1.84,2.33,2.64,3.61c2.41,3.38,4.59,7,6.52,10.86c5.47,11.42,8.21,23.82,8.21,37.16V175.16z"/>
	<path class="st5" d="M1121.09,215.22c-3.38,3.22-7.24,4.81-11.58,4.81c-4.33,0-8.12-1.59-11.33-4.81
		c-3.22-3.21-4.84-7.15-4.84-11.82c0-4.36,1.54-8.14,4.59-11.35c3.22-3.22,7.07-4.83,11.58-4.83c4.51,0,8.36,1.6,11.58,4.83
		c3.38,3.06,5.08,6.84,5.08,11.35C1126.32,208.06,1124.64,212,1121.09,215.22z M990.08,175.16c-5.31,0-9.74-1.69-13.28-5.07
		c-3.85-3.86-5.78-9.16-5.78-15.93V30.39h14.96c4.34,0,8.36,1.54,12.07,4.59c3.86,3.38,5.8,7.31,5.8,11.82v128.36H990.08z
		 M731.43,248.75c-3.22-3.22-4.83-7.09-4.83-11.58c0-4.66,1.6-8.53,4.83-11.58c3.06-3.06,6.9-4.59,11.57-4.59
		c4.51,0,8.37,1.54,11.58,4.59c3.23,3.06,4.84,6.92,4.84,11.58c0,4.5-1.62,8.36-4.84,11.58c-3.38,3.22-7.22,4.82-11.58,4.82
		C738.51,253.57,734.64,251.98,731.43,248.75z M767.86,248.75c-3.22-3.22-4.83-7.09-4.83-11.58c0-4.66,1.6-8.53,4.83-11.58
		c3.22-3.06,7.15-4.59,11.82-4.59c4.66,0,8.61,1.54,11.83,4.59c3.21,3.06,4.82,6.92,4.82,11.58c0,4.5-1.6,8.36-4.82,11.58
		c-3.38,3.22-7.33,4.82-11.83,4.82C775.18,253.57,771.24,251.98,767.86,248.75z M1075.01,175.16l-18.35,0v5.56
		c0,9.31-3.13,17.27-9.4,23.87c-6.77,6.92-15.29,10.38-25.59,10.38c-6.59,0-11.9-1.52-15.91-4.59c-4.03-3.05-6.05-7.22-6.05-12.54
		v-13.02c8.04,0.95,12.15,1.44,12.31,1.44c5.62,0,9.33-1.69,11.1-5.07c1.44-2.57,2.17-7.57,2.17-14.96V90.96h12.79
		c7.4,0,12.63,1.62,15.68,4.83c2.74,3.22,4.11,8.68,4.11,16.4v33.29l17.14,0h3.62l18.34,0c7.72-0.65,11.58-5.22,11.58-13.76V90.71
		h11.82c13.82,0,20.74,7.15,20.74,21.48v20.98c0,12.07-3.46,21.81-10.36,29.2c-7.25,8.04-17.7,12.32-31.37,12.79l-20.75,0H1075.01z
		 M896.46,175.16l-42.71,0v-73.36c-14.16,0.82-24.13,6.44-29.92,16.9c-4.03,6.92-6.77,18.34-8.21,34.26
		c-1.45,18.5-5.15,32.17-11.1,41.02c-7.89,11.41-20.76,17.13-38.59,17.13c-43.6,0-65.4-20.91-65.4-62.74
		c0-12.86,2.73-23.07,8.21-30.62c5.62-7.57,13.19-11.35,22.68-11.35l13.76,1.2c-4.19,4.66-7.8,9.96-10.85,15.91
		c-3.88,7.89-5.8,15.53-5.8,22.93c0,11.9,2.01,20.36,6.03,25.34c5.63,7.07,16.63,10.68,33.06,10.86c7.56,0,12.69-3.46,15.43-10.38
		c1.45-4.03,2.66-12.38,3.61-25.1c0.5-9.33,1.54-17.75,3.16-25.32c1.92-9.99,4.81-18.18,8.69-24.62
		c11.57-17.05,31.61-25.57,60.06-25.57h24.63v73.83l13.26,0h7.23l2.16,0c7.57-0.48,11.35-4.98,11.35-13.5V30.63h11.83
		c14.32,0,21.48,7.09,21.48,21.23v81.32c0,12.23-3.54,22.03-10.61,29.43c-7.4,7.89-18.02,12.07-31.86,12.55l-4.35,0H896.46z"/>
</g>
</svg>
