<?xml version="1.0" encoding="utf-8"?>
<!-- Generator: Adobe Illustrator 25.4.1, SVG Export Plug-In . SVG Version: 6.00 Build 0)  -->
<svg version="1.1" id="Layer_1" xmlns="http://www.w3.org/2000/svg" xmlns:xlink="http://www.w3.org/1999/xlink" x="0px" y="0px"
	 viewBox="0 0 1440.36 208.58" style="enable-background:new 0 0 1440.36 208.58;" xml:space="preserve">
<style type="text/css">
	.st0{fill:#060606;}
	.st1{fill:#FCFCFC;}
	.st2{fill:#FF0000;}
	.st3{fill-rule:evenodd;clip-rule:evenodd;fill:#FF0000;}
	.st4{fill-rule:evenodd;clip-rule:evenodd;fill:#F7F7F7;}
</style>
<path class="st4" d="M1312.27,10.61l19.86,74.24l51.12-74.24h57.11l-89.74,118.83l-16.06,75.34h-52.22l15.76-75.34l-39.96-118.83
	H1312.27z M1186.65,125.92l-6-66.91l-33.99,66.91H1186.65z M1125.47,167.54l-18.76,37.26h-53.05l107.96-194.17h59.28l26.39,194.17
	h-53.32l-3.53-37.26H1125.47z M960.96,204.78L958.8,80.52l-53.32,124.26H853L841.86,10.61h56.28l-2.17,125.63l52.75-124.26h49.48
	l1.1,126.99l51.95-128.36h54.38l-91.1,194.17H960.96z M625.14,104.17c-8.97,47.32,19.86,84.31,66.91,84.31
	c47.59,0,89.44-38.35,98.17-84.31c8.43-45.95-19.32-84.31-67.18-84.31c-47.32,0-89.47,37.52-97.9,84.04V104.17z M602.28,104.7
	C613.71,42.69,670.02,0,726.84,0c59.02,0,96.54,45.15,85.67,104.17c-11.16,59.02-65.01,104.17-124.29,104.17
	c-59.55,0-96.54-45.98-85.94-103.36V104.7z M467.7,3.55h52.48c31.56,0,45.69,3.8,54.65,10.33c14.43,9.8,21.76,31.29,17.43,54.12
	c-2.2,13.6-8.7,28.02-19.33,39.42c-14.96,16.33-29.89,20.13-48.95,22.03l36.19,75.34h-24.49l-40.52-87.84h6.53
	c14.13,0,33.72-0.27,46.52-10.33c12.5-10.33,19.3-22.56,22.03-36.99c2.7-14.96-1.63-30.72-12.53-38.89
	c-8.96-6.53-21.2-7.33-39.42-7.33h-31.56l-33.72,181.38h-22.56L467.7,3.55z M392.95,55.76c-4.9-8.7-11.16-16.06-18.76-21.76
	c-11.16-8.96-26.12-14.13-44.05-14.13c-44.05,0-88.67,33.72-97.9,84.01c-9.53,51.15,22.83,84.87,66.88,84.87
	c21.22,0,41.35-7.36,57.11-18.23c16.33-11.16,28.83-26.39,35.09-42.15H291.25l3.53-18.49h126.16c-2.44,11.7-7.87,26.39-16.3,38.89
	c-24.49,37.79-68.81,59.82-109.33,59.82c-58.75,0-96.8-45.12-85.67-104.7C220.8,43.53,276.29,0.01,334.47,0.01
	c40.79,0,74.24,22.83,84.04,55.75H392.95z M126.73,28.84l-58.75,100.9h80.24L126.73,28.84z M24.19,204.78H0L121.29,3.54h21.76
	l45.95,201.24h-24.46l-12.79-56.55H57.92L24.19,204.78z"/>
</svg>
